<?xml version="1.0" standalone="no"?>
<!DOCTYPE svg PUBLIC "-//W3C//DTD SVG 20010904//EN"
 "http://www.w3.org/TR/2001/REC-SVG-20010904/DTD/svg10.dtd">
<svg version="1.0" xmlns="http://www.w3.org/2000/svg"
 width="500.000000pt" height="500.000000pt" viewBox="0 0 500.000000 500.000000"
 preserveAspectRatio="xMidYMid meet">
<metadata>
Created by potrace 1.14, written by Peter Selinger 2001-2017
</metadata>
<g transform="translate(0.000000,500.000000) scale(0.100000,-0.100000)"
fill="#000000" stroke="none">
<path d="M3159 3900 c-8 -4 -37 -10 -66 -13 -29 -3 -56 -8 -61 -11 -5 -3 -20
-7 -35 -10 -15 -4 -38 -8 -53 -11 -29 -6 -104 -35 -119 -45 -10 -8 -85 -34
-97 -35 -4 0 -16 -8 -27 -17 -11 -9 -22 -14 -25 -11 -3 3 -8 -1 -12 -10 -3 -9
-12 -13 -20 -10 -8 3 -14 0 -14 -7 0 -6 -4 -9 -9 -5 -12 7 -24 -12 -16 -24 3
-6 21 -1 40 10 19 12 35 17 35 12 0 -4 5 -1 10 7 6 9 10 10 10 3 0 -6 -4 -14
-9 -17 -5 -3 -7 -16 -3 -28 3 -14 2 -19 -6 -14 -7 4 -12 14 -12 22 0 8 -4 14
-8 14 -5 0 -9 -7 -9 -15 0 -8 4 -15 9 -15 4 0 8 -5 8 -12 0 -6 -3 -8 -7 -5 -3
4 -12 2 -20 -4 -7 -6 -13 -8 -13 -3 0 5 -5 2 -11 -6 -8 -12 -9 -10 -4 9 6 18
4 22 -6 16 -8 -5 -11 -5 -7 0 4 4 3 14 -3 22 -13 15 -33 18 -24 3 3 -5 1 -10
-5 -10 -6 0 -35 -18 -65 -40 -30 -22 -58 -41 -62 -43 -19 -6 -163 -144 -163
-157 0 -5 -9 -12 -20 -15 -11 -4 -18 -10 -16 -14 3 -4 -4 -14 -15 -21 -10 -8
-19 -19 -19 -25 0 -6 -9 -16 -20 -23 -11 -7 -20 -19 -20 -26 0 -8 -3 -16 -7
-18 -10 -4 -63 -74 -63 -83 0 -3 -10 -19 -21 -34 -12 -16 -18 -34 -15 -40 4
-6 2 -11 -4 -11 -6 0 -16 -12 -23 -27 -6 -16 -17 -34 -24 -41 -7 -8 -11 -18
-8 -23 4 -5 1 -9 -5 -9 -6 0 -9 -4 -6 -9 4 -5 1 -11 -6 -13 -14 -5 -2 -28 14
-28 6 0 8 3 5 7 -4 3 0 14 9 24 9 10 14 25 11 33 -6 14 16 17 29 3 4 -3 15 -2
25 4 15 7 17 6 13 -6 -3 -8 -10 -12 -15 -9 -5 3 -9 -4 -9 -15 0 -15 -4 -19
-17 -14 -12 5 -14 3 -7 -8 14 -23 13 -40 -2 -46 -9 -3 -12 -13 -9 -27 5 -15 4
-17 -3 -7 -8 10 -11 6 -17 -18 -4 -18 -11 -28 -17 -25 -7 4 -8 2 -4 -4 4 -6
12 -10 19 -8 7 1 9 1 4 -1 -4 -3 -4 -10 -1 -15 4 -7 2 -8 -4 -4 -11 7 -17 -6
-13 -28 1 -5 -4 -6 -12 -3 -8 3 -14 -1 -14 -9 0 -8 5 -13 11 -12 7 2 12 -1 13
-7 2 -5 -9 -9 -23 -8 -22 2 -23 1 -9 -13 14 -14 13 -69 0 -83 -3 -2 0 -10 6
-17 8 -10 7 -15 -4 -20 -10 -3 -14 -18 -13 -44 0 -21 -2 -36 -5 -34 -4 2 -10
-3 -13 -12 -3 -8 -2 -12 3 -9 5 3 13 0 17 -6 4 -8 3 -9 -4 -5 -16 10 -15 -7 1
-23 10 -11 9 -12 -2 -6 -10 6 -11 2 -6 -16 7 -22 7 -23 -11 -9 -18 14 -18 14
-4 -3 19 -25 25 -61 8 -51 -10 6 -9 4 0 -8 16 -20 25 -91 10 -82 -6 4 -5 -3 1
-15 10 -18 9 -20 -6 -14 -16 6 -16 4 2 -17 l20 -23 -25 13 c-14 7 -28 18 -32
24 -5 8 -8 7 -8 -2 0 -7 7 -15 16 -19 13 -5 13 -8 2 -15 -8 -6 -5 -7 12 -2 22
6 23 5 11 -10 -17 -21 -36 -16 -36 10 0 19 -19 23 -21 4 -1 -5 -2 -11 -4 -12
-9 -12 -6 -39 6 -49 8 -6 11 -16 8 -21 -12 -18 6 -95 22 -95 10 0 11 4 4 11
-13 13 -13 26 1 26 5 0 8 -4 4 -9 -3 -6 5 -9 17 -8 34 2 49 26 42 67 -4 19 -8
42 -8 50 -1 9 -5 21 -10 28 -5 8 -1 12 11 12 14 0 15 2 5 9 -8 5 -12 21 -11
37 2 16 0 35 -4 42 -6 8 -2 12 9 12 16 0 16 1 -2 15 -12 9 -14 14 -6 15 7 0
10 5 7 10 -4 6 -12 8 -18 4 -7 -3 -5 0 4 8 17 14 22 48 7 48 -5 0 -6 5 -2 12
4 6 8 21 10 32 1 12 5 30 9 41 6 17 5 18 -5 5 -10 -12 -10 -10 -5 10 4 14 7
34 8 45 1 11 9 26 17 33 11 10 12 12 1 6 -11 -6 -13 -3 -6 12 4 10 9 26 10 34
4 30 26 105 37 127 6 11 7 26 4 32 -4 6 -2 11 4 11 6 0 9 4 5 9 -3 5 -1 12 5
16 5 3 10 14 10 24 0 9 8 35 19 57 10 21 24 53 32 71 7 17 17 29 21 27 4 -3 8
2 8 10 0 24 2 30 17 44 7 7 13 20 13 28 0 8 4 14 10 14 5 0 17 14 25 30 9 17
31 46 50 66 19 20 35 37 35 40 0 10 225 222 232 218 4 -3 8 -1 8 4 0 6 17 20
38 33 20 12 51 31 67 41 17 10 38 21 48 24 9 4 17 11 17 16 0 5 5 6 10 3 6 -3
10 -2 10 4 0 5 9 8 20 6 11 -2 18 0 15 5 -3 4 12 14 32 20 21 7 43 16 49 21 6
5 14 6 17 2 4 -3 7 2 7 12 0 14 3 15 15 5 12 -10 16 -9 21 4 5 13 9 14 21 5
11 -10 13 -9 11 2 -2 9 7 15 27 17 16 2 33 9 37 15 6 9 8 8 8 -2 0 -10 3 -11
13 -2 8 6 17 8 20 4 4 -3 7 -1 7 7 0 10 3 10 15 0 13 -11 14 -10 9 4 -3 9 -1
16 5 16 6 0 11 -5 11 -10 0 -7 6 -7 19 0 11 5 37 10 58 10 22 0 44 5 51 12 7
7 12 8 12 3 0 -6 11 -10 24 -10 13 0 21 4 18 10 -3 6 1 4 10 -3 12 -9 18 -10
23 -2 5 8 11 7 23 -2 12 -10 14 -10 8 0 -5 8 0 12 14 12 20 0 20 1 6 22 -19
27 -21 45 -3 30 8 -7 19 -6 37 3 l25 14 -32 -4 c-19 -2 -33 2 -36 9 -3 7 1 13
9 13 8 0 14 -3 14 -7 0 -3 17 -5 38 -3 26 2 33 0 22 -7 -10 -7 -11 -10 -2 -10
7 0 15 6 18 14 4 11 12 13 29 6 16 -6 27 -6 31 2 4 7 3 8 -4 4 -7 -4 -12 -2
-12 3 0 7 -44 11 -126 11 -81 0 -123 -4 -119 -10 3 -5 15 -10 26 -10 10 0 19
-5 19 -11 0 -5 -4 -7 -10 -4 -5 3 -10 1 -10 -5 0 -7 7 -9 15 -6 9 3 18 -1 22
-10 4 -12 8 -13 13 -3 6 8 11 5 20 -11 11 -21 10 -22 -6 -15 -11 4 -32 7 -47
6 -20 -1 -27 2 -22 11 4 7 -1 4 -9 -6 -14 -17 -16 -17 -16 -4 0 9 4 19 10 23
14 9 0 37 -16 31 -7 -3 -16 -1 -19 3 -7 13 -41 19 -56 11z m174 -27 c-24 -8
-26 -8 -29 9 -2 15 1 16 19 6 13 -7 17 -13 10 -15z m-103 -3 c14 -1 19 -4 13
-7 -7 -2 -13 -14 -13 -25 0 -20 -1 -20 -20 -3 -11 10 -17 22 -14 27 4 6 -3 5
-15 -2 -12 -6 -19 -14 -17 -18 3 -5 1 -14 -5 -22 -6 -11 -9 -11 -10 -2 -3 27
-4 31 -13 39 -5 5 -6 2 -1 -5 6 -12 3 -12 -16 -1 -25 13 -27 13 -46 -3 -9 -7
-10 -15 -2 -30 8 -15 8 -19 0 -14 -6 4 -11 1 -12 -6 0 -10 -2 -10 -6 0 -7 17
-23 15 -23 -3 0 -8 -5 -15 -12 -15 -6 0 -8 3 -5 7 4 3 0 11 -8 17 -14 10 -14
14 0 34 9 12 21 20 26 17 5 -4 9 0 9 7 0 9 3 9 10 -2 8 -12 12 -12 18 -2 6 9
23 11 55 7 27 -3 47 -2 47 4 0 5 8 8 18 6 9 -2 28 -4 42 -5z m-100 -35 c17
-11 11 -21 -12 -20 -28 0 -50 13 -43 25 6 9 37 6 55 -5z m68 3 c15 -15 16 -38
1 -38 -5 0 -7 5 -3 12 5 7 2 9 -9 5 -11 -4 -15 0 -14 14 1 22 8 24 25 7z
m-272 -13 c-3 -8 -1 -15 4 -15 6 0 10 5 10 10 0 6 6 5 14 -2 16 -15 2 -52 -17
-45 -7 2 -18 -3 -25 -12 -9 -10 -11 -11 -6 -2 5 11 3 13 -9 8 -9 -3 -19 -1
-23 5 -5 7 -2 8 5 3 10 -6 11 -3 2 13 -12 22 0 39 19 27 6 -3 13 1 16 9 3 9 8
16 11 16 3 0 3 -7 -1 -15z m58 1 c-3 -8 -1 -17 5 -21 6 -3 11 -11 11 -16 0 -6
-4 -8 -9 -5 -5 4 -12 0 -15 -6 -4 -7 -4 -3 -2 9 2 13 0 26 -6 29 -6 4 -5 10 3
15 19 12 19 11 13 -5z m-118 -42 c-3 -7 2 -20 10 -28 13 -13 11 -15 -13 -13
-16 1 -27 -3 -26 -9 1 -6 -8 -10 -20 -9 -12 1 -27 -5 -34 -14 -10 -14 -11 -14
-10 4 1 13 -4 20 -15 19 -10 -1 -18 4 -18 12 0 8 6 11 17 7 11 -4 14 -3 9 5
-4 7 -2 13 3 13 26 3 30 4 37 12 13 13 23 7 21 -13 -1 -11 -5 -20 -10 -20 -5
0 -6 8 -2 18 5 13 3 14 -6 5 -6 -6 -8 -16 -4 -23 8 -13 30 -8 31 8 1 7 3 14 4
17 2 5 5 15 9 31 0 3 6 2 12 -1 6 -4 8 -13 5 -21z m-133 -47 c3 -8 -1 -14 -9
-14 -8 0 -14 6 -14 14 0 7 4 13 9 13 5 0 11 -6 14 -13z m31 -20 c-2 -7 -18
-21 -33 -30 -25 -15 -30 -15 -35 -2 -6 16 22 35 42 28 6 -3 12 0 12 6 0 6 4
11 10 11 5 0 7 -6 4 -13z m-197 -64 c-4 -3 -2 -12 5 -20 9 -11 7 -12 -8 -6
-17 6 -18 5 -4 -13 14 -18 14 -18 -2 -5 -10 7 -18 10 -18 6 0 -5 -3 -6 -6 -3
-5 6 26 48 35 48 2 0 1 -3 -2 -7z m33 -13 c0 -5 -2 -10 -4 -10 -3 0 -8 5 -11
10 -3 6 -1 10 4 10 6 0 11 -4 11 -10z m-145 -100 c1 -15 -2 -17 -17 -9 -23 12
-23 6 -1 -17 16 -16 16 -16 -2 -11 -11 4 -27 2 -35 -3 -13 -8 -13 -10 -1 -10
11 0 9 -4 -4 -14 -11 -8 -23 -12 -26 -10 -4 2 -10 -3 -13 -12 -3 -8 -10 -12
-16 -9 -5 3 -10 -1 -10 -9 0 -9 -5 -16 -11 -16 -5 0 -7 -5 -3 -12 5 -7 3 -8
-6 -3 -10 6 -12 4 -7 -8 4 -11 2 -14 -9 -10 -9 3 -14 0 -12 -8 2 -7 -7 -18
-20 -24 -12 -5 -20 -16 -17 -23 3 -8 0 -10 -7 -6 -7 5 -9 2 -5 -9 4 -11 2 -14
-9 -10 -10 4 -12 9 -4 18 6 7 9 19 8 26 -2 9 6 14 19 14 12 0 26 5 30 9 4 5 3
6 -4 2 -6 -3 -14 -2 -18 4 -3 5 -3 10 2 10 4 0 19 16 32 35 13 19 28 33 35 32
6 -1 10 3 9 10 -2 8 4 10 14 6 10 -4 14 -2 10 4 -4 6 0 14 9 17 14 5 14 9 3
24 -11 14 -11 15 1 5 8 -7 21 -13 30 -12 10 0 11 2 2 6 -9 3 -4 12 15 29 29
25 36 24 38 -6z m-252 -215 c-3 -9 -8 -14 -10 -11 -3 3 -2 9 2 15 9 16 15 13
8 -4z m-42 -89 c-8 -10 -9 -16 -2 -21 7 -4 6 -14 -4 -29 -8 -12 -13 -25 -9
-28 3 -3 1 -9 -5 -12 -6 -4 -8 3 -5 19 2 14 0 25 -6 25 -6 0 -9 -4 -6 -8 2 -4
1 -14 -4 -22 -5 -9 -5 -19 1 -27 8 -9 5 -11 -11 -8 -19 4 -21 1 -18 -20 3 -15
-1 -30 -12 -40 -16 -14 -18 -14 -31 1 -11 14 -11 18 -1 21 6 3 10 9 7 13 -3 5
5 16 17 24 12 9 19 16 14 16 -5 0 -3 6 3 13 6 8 7 18 3 22 -4 5 -1 4 7 0 11
-6 13 -4 8 8 -3 9 0 18 9 21 8 3 13 11 12 18 -2 7 3 12 10 11 6 -2 12 2 12 7
0 6 5 10 11 10 8 0 8 -4 0 -14z m-195 -988 c4 -6 3 -8 -3 -5 -6 4 -17 -1 -24
-10 -12 -15 -12 -16 3 -10 13 5 16 1 12 -19 -2 -13 -1 -24 3 -23 18 3 24 -2
16 -13 -4 -7 -8 -20 -8 -28 0 -8 -7 -13 -15 -11 -8 2 -23 4 -32 5 -12 0 -14 5
-8 17 6 10 5 20 -2 27 -7 7 -8 12 -4 12 5 0 3 7 -4 15 -10 12 -10 15 1 15 11
0 11 3 -1 11 -12 8 -11 9 6 4 13 -3 26 1 34 10 15 18 17 18 26 3z"/>
<path d="M3015 3833 c-8 -23 -6 -26 8 -14 10 8 17 7 27 -2 12 -10 12 -9 2 4
-6 9 -10 18 -7 21 3 2 -2 5 -10 5 -8 0 -17 -7 -20 -14z"/>
<path d="M3086 3828 c3 -5 10 -6 15 -3 13 9 11 12 -6 12 -8 0 -12 -4 -9 -9z"/>
<path d="M2894 3800 c2 -16 20 -14 24 2 3 10 2 10 -6 -1 -7 -9 -11 -10 -15 -2
-4 7 -5 8 -3 1z"/>
<path d="M2935 3800 c-3 -5 -1 -10 4 -10 6 0 11 5 11 10 0 6 -2 10 -4 10 -3 0
-8 -4 -11 -10z"/>
<path d="M2780 3762 c0 -7 -1 -15 -2 -19 -2 -3 5 -7 15 -9 15 -2 16 0 5 14 -7
9 -14 19 -15 21 -2 2 -3 -1 -3 -7z"/>
<path d="M2296 3422 l-19 -27 24 22 c12 12 21 24 18 27 -2 2 -13 -8 -23 -22z"/>
<path d="M2134 3213 c2 -10 6 -17 10 -16 15 3 16 11 2 22 -12 10 -14 9 -12 -6z"/>
<path d="M2095 3151 c-3 -5 -2 -12 3 -15 5 -3 9 1 9 9 0 17 -3 19 -12 6z"/>
<path d="M2069 3115 c-1 -3 -2 -8 -3 -12 -1 -5 -5 -13 -9 -20 -11 -17 9 -25
22 -9 8 10 9 16 1 21 -6 3 -8 11 -5 16 4 5 4 9 1 9 -3 0 -7 -2 -7 -5z"/>
<path d="M1910 2210 c0 -5 7 -10 16 -10 8 0 12 5 9 10 -3 6 -10 10 -16 10 -5
0 -9 -4 -9 -10z"/>
<path d="M1917 2177 c4 -7 8 -16 8 -21 0 -5 8 -10 18 -12 11 -1 16 0 13 3 -3
4 -1 12 6 20 6 8 7 13 2 12 -5 -1 -11 0 -14 1 -22 8 -39 7 -33 -3z m28 -6 c3
-5 2 -12 -3 -15 -5 -3 -9 1 -9 9 0 17 3 19 12 6z"/>
<path d="M3539 3901 c-12 -4 -14 -12 -8 -28 5 -13 10 -23 13 -23 2 0 2 10 -1
23 -4 18 -3 19 6 7 6 -8 11 -10 11 -5 0 6 8 11 19 11 11 0 17 -5 14 -13 -3 -7
-10 -10 -17 -6 -6 3 -7 2 -3 -2 10 -12 38 -15 32 -4 -4 5 1 6 9 3 9 -3 16 -1
16 6 0 6 5 8 10 5 6 -3 10 -1 10 4 0 6 -8 12 -17 12 -41 3 -61 6 -69 11 -5 3
-16 3 -25 -1z"/>
<path d="M3634 3855 c-18 -14 -40 -26 -50 -28 -11 -1 -25 -7 -33 -11 -11 -7
-12 -6 -6 5 7 11 5 11 -10 -1 -14 -11 -17 -12 -10 -1 6 11 1 13 -23 9 -17 -2
-34 0 -36 6 -2 6 -5 5 -5 -3 -1 -11 -5 -10 -16 5 -10 13 -13 14 -10 3 4 -9 0
-16 -8 -16 -9 0 -13 8 -10 21 3 19 3 19 -6 -1 -6 -13 -16 -23 -22 -23 -30 0 3
-11 46 -15 26 -3 51 -8 56 -11 5 -3 9 0 9 6 0 8 6 8 20 0 11 -6 35 -9 55 -7
19 2 35 1 35 -3 0 -4 12 -6 27 -5 15 0 49 -5 76 -12 27 -7 54 -10 58 -7 5 3 9
0 9 -6 0 -7 6 -8 19 0 14 7 22 7 26 0 5 -8 11 -8 20 0 10 8 16 7 24 -7 6 -10
11 -13 11 -7 0 5 -6 16 -12 23 -11 11 -10 12 2 6 8 -5 21 -17 28 -27 7 -10 19
-18 25 -17 9 0 8 2 -1 6 -6 2 -9 10 -6 15 4 7 2 8 -4 4 -7 -4 -12 -3 -12 2 0
6 7 12 15 16 8 3 14 0 12 -6 -1 -6 4 -13 11 -15 7 -3 11 -1 10 4 -3 7 5 13 17
13 3 0 1 -10 -5 -22 -10 -21 -9 -21 9 2 20 25 20 25 16 2 -2 -13 0 -20 6 -16
5 3 16 0 24 -6 8 -7 15 -9 15 -5 0 4 8 1 17 -6 14 -12 16 -12 9 1 -4 9 -2 8 7
-2 8 -10 17 -15 20 -11 4 3 7 1 7 -5 0 -7 5 -12 11 -12 5 0 7 5 4 10 -10 16 1
11 16 -7 8 -10 9 -14 2 -10 -6 4 -14 3 -18 -2 -3 -6 4 -8 15 -6 12 2 28 -4 37
-14 9 -11 24 -17 37 -14 17 4 18 3 6 -6 -13 -9 -12 -11 3 -11 11 0 15 -4 11
-12 -4 -6 -3 -8 4 -4 6 3 16 -2 22 -11 11 -17 11 -17 6 0 -4 13 4 9 25 -12 17
-17 28 -35 24 -41 -4 -6 1 -7 11 -3 13 5 15 3 9 -7 -5 -8 -4 -11 3 -6 6 3 17
-1 25 -9 9 -8 18 -15 21 -15 9 0 46 -39 46 -47 0 -5 14 -17 30 -28 16 -11 30
-26 30 -32 0 -7 7 -13 16 -13 8 0 12 -4 9 -10 -3 -5 -3 -10 2 -10 4 0 17 -12
27 -27 13 -17 14 -24 5 -19 -8 4 -3 -2 11 -14 14 -12 18 -18 10 -14 -16 8 7
-24 47 -64 13 -13 20 -28 17 -34 -4 -7 -2 -8 4 -4 11 7 17 -6 13 -27 -1 -5 3
-6 9 -2 5 3 11 0 12 -7 3 -27 5 -34 23 -70 10 -20 23 -34 28 -31 5 3 7 0 5 -8
-3 -8 2 -19 11 -26 11 -8 12 -12 3 -13 -8 0 -3 -15 14 -41 14 -23 21 -38 15
-35 -7 4 -8 1 -5 -8 3 -9 11 -13 17 -9 5 3 7 1 3 -5 -3 -6 -2 -13 3 -17 5 -3
8 -14 6 -24 -4 -23 10 -45 24 -37 17 11 13 29 -5 22 -13 -5 -14 -3 -6 6 11 14
-12 98 -30 109 -5 3 -8 8 -6 11 3 5 -62 149 -71 158 -4 3 -13 19 -21 35 -8 17
-17 32 -20 35 -18 16 -48 68 -43 74 3 3 0 6 -8 6 -8 0 -20 14 -27 30 -8 17
-20 30 -28 30 -9 0 -12 5 -9 10 4 6 -9 25 -29 42 -19 17 -33 35 -30 40 3 4 1
8 -4 8 -6 0 -32 22 -59 50 -26 27 -54 50 -61 50 -7 0 -10 5 -7 10 3 6 1 10 -5
10 -6 0 -17 6 -24 13 -8 6 -24 19 -36 27 -12 8 -28 20 -34 25 -21 19 -120 80
-158 97 -39 18 -55 19 -50 5 1 -5 -2 -6 -7 -2 -6 3 -8 12 -4 20 3 8 0 15 -6
15 -6 0 -34 11 -63 23 -93 42 -117 49 -129 41 -7 -4 -10 -3 -6 3 4 6 -18 15
-51 22 -31 7 -66 15 -77 17 -12 3 -33 -6 -51 -21z m54 -21 c0 -23 -17 -32 -32
-17 -10 10 -36 13 -36 3 0 -4 -7 -10 -15 -14 -25 -9 -17 8 14 29 43 30 69 29
69 -1z m56 -29 c-9 -22 18 -30 33 -10 8 12 13 14 13 6 0 -7 6 -11 14 -8 10 4
13 1 9 -8 -4 -13 -21 -14 -75 -6 -5 0 -8 11 -8 23 0 20 -13 18 -16 -3 -3 -19
-4 -20 -14 -14 -8 5 -7 11 0 20 7 8 9 19 5 25 -4 7 2 6 19 -1 13 -6 22 -17 20
-24z m22 7 c1 -12 -3 -22 -8 -22 -6 0 -7 8 -4 17 4 9 1 20 -6 25 -10 7 -9 9 2
5 8 -2 16 -13 16 -25z m84 -30 c0 -13 -12 -22 -22 -16 -10 6 -1 24 13 24 5 0
9 -4 9 -8z m848 -707 c-3 -3 -9 2 -12 12 -6 14 -5 15 5 6 7 -7 10 -15 7 -18z"/>
<path d="M3650 3839 c0 -4 6 -9 13 -12 8 -3 14 0 14 7 0 7 -6 13 -14 13 -7 0
-13 -4 -13 -8z"/>
<path d="M3450 3859 c0 -5 5 -7 10 -4 6 3 10 8 10 11 0 2 -4 4 -10 4 -5 0 -10
-5 -10 -11z"/>
<path d="M3375 3840 c-3 -5 -1 -10 4 -10 6 0 11 5 11 10 0 6 -2 10 -4 10 -3 0
-8 -4 -11 -10z"/>
<path d="M3325 3739 c-22 -4 -62 -10 -90 -14 -111 -14 -275 -65 -371 -114 -34
-17 -67 -31 -73 -31 -6 0 -11 -3 -11 -8 0 -4 -21 -18 -47 -32 -27 -13 -50 -27
-53 -31 -3 -4 -22 -18 -42 -32 -137 -92 -326 -294 -394 -421 -13 -26 -54 -97
-62 -111 -4 -5 -7 -12 -8 -15 0 -3 -11 -27 -23 -55 -26 -58 -57 -148 -66 -191
-8 -38 -13 -58 -15 -61 -2 -2 -4 -7 -5 -13 -1 -5 -3 -11 -5 -12 -2 -3 -4 -23
-16 -123 -12 -109 -7 -328 10 -417 3 -16 0 -28 -6 -28 -5 0 -8 -7 -5 -15 4 -8
1 -17 -6 -21 -7 -4 -9 -4 -5 1 4 4 2 17 -5 29 -6 11 -12 30 -13 41 -1 10 -6
21 -12 23 -5 1 -7 12 -4 24 3 15 1 19 -7 14 -6 -4 -9 -12 -6 -17 4 -5 0 -9 -7
-9 -8 0 -9 -3 -3 -8 6 -4 16 -20 23 -36 11 -24 11 -31 0 -39 -10 -7 -9 -8 2
-4 12 4 16 -2 14 -24 -2 -30 10 -47 21 -29 8 13 25 13 25 0 0 -6 -3 -9 -7 -9
-5 1 -10 1 -13 -1 -3 -1 -16 -3 -30 -6 -19 -3 -21 -2 -10 6 18 12 0 13 -19 1
-22 -14 -4 -33 20 -21 18 10 23 6 20 -13 -1 -4 8 -3 19 3 11 6 20 15 20 21 0
6 5 7 12 3 8 -5 5 -12 -9 -24 -19 -15 -19 -18 -4 -29 9 -6 10 -9 4 -6 -7 3
-13 2 -13 -4 0 -5 6 -12 13 -14 10 -4 10 -6 0 -6 -18 -1 -16 -31 2 -31 8 0 15
-3 14 -7 -2 -16 14 -53 23 -53 5 0 7 -4 4 -9 -3 -5 1 -14 9 -21 8 -7 12 -16 9
-21 -3 -5 2 -12 10 -15 9 -3 16 -12 16 -20 0 -8 5 -14 10 -14 16 0 12 14 -14
53 -13 19 -22 38 -18 41 3 3 0 6 -6 6 -7 0 -12 7 -12 15 0 9 -6 18 -14 21 -8
3 -12 12 -9 20 3 9 -2 14 -13 15 -15 0 -16 2 -4 7 8 4 16 16 18 26 2 10 10 25
18 33 27 27 35 52 25 71 -10 16 -10 16 -11 -1 0 -11 -4 -15 -12 -11 -7 4 -8 3
-4 -4 8 -13 -21 -62 -37 -62 -6 0 0 12 14 27 13 14 19 23 12 19 -17 -9 -27 12
-13 29 9 11 9 15 1 15 -6 0 -11 -5 -11 -11 0 -5 -4 -8 -10 -4 -10 6 8 55 21
55 4 0 10 13 14 30 4 17 10 30 14 30 4 0 15 15 26 33 19 32 132 209 164 256 9
13 27 42 40 65 13 23 27 43 31 46 4 3 15 19 24 37 9 17 20 34 24 37 5 3 28
-30 52 -72 24 -42 50 -83 57 -90 7 -7 16 -24 19 -38 3 -13 10 -24 15 -24 5 0
9 -4 9 -10 0 -5 20 -42 45 -82 25 -40 45 -78 45 -85 0 -7 4 -13 9 -13 5 0 13
-10 17 -22 4 -13 11 -26 17 -29 9 -6 67 63 84 101 4 8 27 46 52 84 25 37 51
76 56 86 6 10 22 35 37 56 14 22 50 77 80 124 30 47 84 130 120 185 35 55 83
129 106 164 l41 64 18 -32 c10 -17 21 -31 26 -31 4 0 7 -5 7 -10 0 -10 44 -83
65 -107 5 -6 24 -35 40 -63 17 -28 45 -71 63 -95 17 -24 32 -47 32 -50 0 -4
14 -26 30 -50 17 -24 30 -48 30 -54 0 -6 4 -11 9 -11 5 0 14 -13 21 -30 7 -16
16 -30 21 -30 4 0 11 -10 15 -22 4 -13 16 -31 27 -40 11 -10 17 -18 14 -18 -4
0 13 -30 38 -66 25 -36 45 -67 45 -69 0 -2 29 -47 65 -100 36 -53 65 -99 65
-101 0 -2 32 -51 70 -108 39 -58 70 -110 70 -115 0 -6 4 -11 9 -11 5 0 14 -13
21 -30 7 -16 16 -30 21 -30 5 0 9 -6 9 -13 0 -7 8 -22 18 -33 9 -10 23 -31 31
-46 8 -15 22 -36 30 -45 9 -10 23 -33 30 -50 7 -18 16 -33 20 -33 4 0 20 -22
36 -50 16 -28 32 -50 36 -50 17 0 91 81 204 221 7 9 16 26 20 38 3 12 10 21
15 21 5 0 22 26 37 57 15 32 32 65 38 73 15 20 70 154 86 210 7 25 13 47 14
50 1 3 5 23 10 45 13 56 12 55 15 58 18 23 30 309 17 407 -21 154 -47 257 -93
375 -34 86 -109 234 -123 245 -4 3 -21 28 -39 55 -33 52 -80 107 -156 185 -48
48 -57 56 -126 110 -25 19 -47 37 -50 41 -8 11 -84 49 -97 49 -7 0 -13 3 -13
8 0 11 -46 30 -120 47 -3 1 -18 7 -33 13 -16 7 -35 12 -43 12 -8 0 -14 4 -14
8 0 4 -8 8 -17 8 -10 1 -36 4 -58 8 -22 4 -53 10 -70 12 -16 3 -37 8 -45 11
-23 9 -300 11 -345 2z m-285 -351 c33 -35 60 -68 60 -75 0 -12 -38 -53 -50
-53 -3 0 -21 16 -40 35 -19 19 -37 35 -41 35 -4 0 -21 -14 -38 -30 -32 -32
-51 -31 -79 3 -14 16 -6 47 12 47 6 0 22 16 36 35 14 19 30 35 36 35 7 0 14 7
18 15 9 25 24 17 86 -47z m-168 -264 c17 -20 17 -21 -12 -49 l-29 -28 -40 41
-39 42 -38 -38 -39 -38 -28 32 -27 32 67 66 68 65 50 -52 c27 -29 58 -62 67
-73z m-822 -1184 c0 -5 -5 -10 -11 -10 -5 0 -7 5 -4 10 3 6 8 10 11 10 2 0 4
-4 4 -10z"/>
<path d="M2625 3680 c-3 -5 -1 -10 5 -10 6 0 8 -6 4 -12 -4 -7 -3 -9 1 -5 12
10 15 37 5 37 -5 0 -12 -4 -15 -10z"/>
<path d="M2020 3005 c-7 -9 -8 -15 -2 -15 12 0 10 -29 -4 -38 -5 -4 -10 -16
-12 -27 -2 -15 1 -13 13 8 9 15 21 27 28 27 8 0 6 4 -3 10 -13 9 -13 10 0 10
12 0 13 2 1 9 -7 5 -10 14 -7 20 10 16 0 13 -14 -4z"/>
<path d="M1970 2955 c0 -14 -4 -25 -10 -25 -5 0 -12 -16 -16 -35 -3 -19 -10
-35 -14 -35 -12 0 -5 -33 8 -38 7 -2 12 6 12 18 0 13 4 19 12 14 6 -4 8 -3 4
4 -3 6 -2 14 4 17 8 5 7 12 -2 23 -11 13 -11 15 2 10 11 -4 15 2 17 20 0 13 6
28 13 32 8 5 7 9 -5 14 -24 9 -25 8 -25 -19z"/>
<path d="M1976 2843 c-6 -14 -5 -15 5 -6 7 7 10 15 7 18 -3 3 -9 -2 -12 -12z"/>
<path d="M4797 2823 c-12 -12 -8 -34 6 -27 9 5 9 4 0 -6 -9 -10 -9 -17 -2 -26
6 -7 12 -25 14 -41 2 -15 4 -29 6 -30 1 -2 3 -7 4 -13 1 -5 3 -11 4 -12 7 -8
8 -77 2 -73 -4 2 -7 -5 -6 -16 1 -11 7 -24 14 -28 9 -6 8 -10 -6 -15 -17 -7
-17 -8 1 -22 11 -8 14 -14 8 -14 -7 0 -12 -7 -12 -15 0 -8 5 -15 11 -15 5 0 7
5 4 10 -3 6 0 10 7 10 20 0 10 129 -19 255 -9 36 -10 45 -12 68 -1 17 -12 22
-24 10z m44 -256 c-10 -9 -11 -8 -5 6 3 10 9 15 12 12 3 -3 0 -11 -7 -18z"/>
<path d="M1911 2798 c-1 -13 -3 -31 -4 -40 -1 -10 -4 -18 -7 -18 -5 0 -9 -30
-12 -75 -1 -35 2 -45 13 -45 6 0 9 7 5 15 -3 8 -1 15 3 15 5 0 11 -7 15 -15 3
-8 1 -15 -5 -15 -6 0 -7 -5 -3 -11 11 -18 24 13 13 33 -7 13 -4 20 12 28 20
11 20 13 3 31 -9 10 -21 16 -27 12 -6 -4 -8 0 -4 11 4 10 7 21 7 24 0 4 7 -4
16 -16 8 -12 19 -22 24 -22 5 0 -2 12 -16 27 -19 20 -21 28 -12 35 7 4 9 8 3
8 -5 0 -3 5 5 10 13 9 13 11 0 20 -22 14 -25 13 -29 -12z m29 -103 c11 -13 10
-14 -5 -9 -12 5 -16 4 -12 -3 4 -6 0 -14 -9 -17 -8 -3 -13 -2 -11 2 2 4 7 15
10 25 8 21 11 21 27 2z"/>
<path d="M3262 2801 c-8 -4 -14 -12 -15 -17 -1 -5 -6 -8 -10 -6 -5 1 -6 -2 -2
-8 6 -9 -29 -67 -50 -82 -5 -4 -6 -8 -2 -8 4 0 -1 -10 -13 -22 -11 -12 -20
-28 -20 -35 0 -9 -5 -11 -12 -7 -7 4 -10 4 -6 -1 4 -4 -1 -20 -12 -35 -11 -15
-17 -30 -13 -34 3 -3 -1 -6 -10 -6 -9 0 -16 -3 -15 -7 4 -16 -39 -86 -79 -128
-7 -7 -9 -15 -6 -19 4 -3 1 -6 -6 -6 -7 0 -10 -4 -6 -9 3 -6 -3 -14 -12 -20
-10 -5 -17 -12 -15 -15 6 -15 1 -26 -10 -20 -7 4 -8 3 -4 -4 4 -7 0 -12 -10
-12 -10 0 -14 -3 -11 -6 4 -4 -2 -19 -13 -34 -11 -16 -20 -33 -20 -38 0 -5 -7
-13 -16 -16 -8 -3 -13 -10 -9 -15 3 -6 -3 -14 -12 -20 -10 -5 -15 -13 -11 -17
4 -3 -4 -15 -17 -26 -14 -11 -22 -25 -18 -31 4 -6 0 -8 -10 -4 -11 4 -14 2
-10 -9 3 -8 -5 -26 -17 -40 -13 -13 -20 -24 -15 -24 5 0 4 -5 -2 -11 -14 -14
-5 -42 10 -32 6 4 8 0 4 -10 -3 -9 1 -18 10 -21 8 -4 13 -13 9 -21 -3 -9 4
-21 20 -31 14 -10 23 -23 20 -30 -3 -8 -1 -14 4 -14 5 0 7 -7 4 -15 -4 -8 1
-17 10 -21 9 -3 13 -11 9 -17 -4 -6 -1 -7 7 -2 10 6 12 1 8 -19 -4 -20 -2 -24
7 -16 9 8 14 6 19 -5 4 -11 2 -14 -7 -10 -6 4 -4 0 7 -9 10 -8 16 -22 13 -30
-4 -11 -1 -13 10 -9 13 5 15 2 10 -11 -4 -10 -7 -20 -7 -22 0 -3 -4 -2 -10 1
-5 3 -10 0 -10 -7 0 -7 -7 -2 -16 10 -8 12 -19 20 -23 17 -4 -2 -14 14 -21 36
-8 23 -20 44 -28 46 -11 5 -11 7 0 14 10 7 10 9 -3 9 -8 0 -25 18 -37 41 -25
47 -27 52 -9 44 6 -4 4 0 -7 9 -11 9 -15 20 -10 28 6 9 3 9 -10 -1 -15 -12
-17 -12 -14 0 2 8 8 18 13 22 6 6 4 7 -5 4 -19 -6 -45 19 -27 26 7 3 3 6 -7 6
-11 1 -16 4 -13 8 4 3 -1 15 -10 26 -13 15 -14 18 -3 12 8 -4 3 5 -12 22 -16
16 -28 38 -28 48 0 15 -3 16 -12 7 -10 -10 -8 -22 11 -57 13 -25 31 -45 40
-45 13 0 13 -2 2 -9 -11 -7 -9 -13 7 -29 11 -11 18 -23 15 -26 -4 -3 -1 -6 5
-6 7 0 11 -3 11 -7 -3 -18 2 -30 19 -49 24 -28 41 -55 53 -87 6 -16 17 -26 24
-24 6 3 12 -1 12 -9 0 -7 -5 -10 -11 -6 -6 3 -2 -7 8 -23 11 -17 25 -39 30
-50 25 -45 25 -45 66 -24 22 12 40 27 40 34 0 19 -62 135 -72 135 -5 0 -6 5
-3 10 3 6 1 10 -5 10 -6 0 -8 5 -5 10 3 6 -1 10 -9 10 -9 0 -13 6 -10 13 3 8
-2 20 -11 27 -8 7 -15 19 -15 26 0 8 -5 14 -11 14 -5 0 -7 5 -4 10 3 6 3 10
-2 10 -4 0 -16 14 -25 30 -9 17 -13 30 -7 30 6 0 7 5 4 10 -3 6 -1 10 4 10 6
0 11 5 11 11 0 6 6 17 13 24 30 35 37 45 30 45 -4 0 -1 6 7 13 17 14 34 39 53
77 12 26 15 30 46 68 10 12 24 36 31 52 7 17 16 30 21 30 5 0 9 6 9 14 0 8 7
17 16 20 8 3 12 10 9 16 -3 5 -1 10 5 10 6 0 8 5 5 10 -3 6 -2 10 4 10 6 0 18
15 27 33 9 17 23 36 30 40 8 4 14 14 14 21 0 8 7 19 15 26 8 7 15 21 15 32 0
10 5 16 10 13 6 -3 10 0 10 8 0 8 7 20 15 27 8 7 12 16 9 21 -3 5 -1 9 5 9 5
0 12 8 15 18 5 15 17 32 65 88 5 7 7 15 4 18 -4 3 -4 6 -1 6 8 0 78 -106 78
-118 0 -7 4 -12 8 -12 5 0 19 -20 32 -45 13 -25 27 -45 32 -45 5 0 7 -4 3 -9
-3 -5 5 -17 17 -25 12 -9 19 -16 15 -16 -4 0 -3 -9 3 -20 6 -11 18 -20 28 -20
15 1 15 2 1 13 -9 7 -19 24 -22 38 -4 14 -18 38 -32 55 -14 16 -28 37 -31 47
-3 9 -10 17 -15 17 -6 0 -7 5 -4 10 3 6 1 10 -4 10 -6 0 -11 6 -11 13 0 8 -9
22 -20 32 -11 10 -17 22 -13 28 4 6 1 7 -7 2 -10 -6 -12 -4 -7 9 4 10 3 15 -3
11 -9 -5 -12 1 -9 21 1 7 -22 24 -31 24 -3 0 -11 -4 -18 -9z m-384 -1146 c-3
-3 -9 2 -12 12 -6 14 -5 15 5 6 7 -7 10 -15 7 -18z"/>
<path d="M1948 2653 c7 -3 16 -2 19 1 4 3 -2 6 -13 5 -11 0 -14 -3 -6 -6z"/>
<path d="M1872 2578 c-6 -173 -4 -270 6 -280 8 -8 11 20 9 110 -1 66 1 118 4
116 4 -2 5 5 2 16 -4 16 -2 19 13 14 18 -6 18 -6 0 8 -15 12 -16 17 -6 23 8 5
11 4 6 -3 -7 -12 20 -10 31 3 4 4 3 5 -3 2 -6 -3 -18 3 -27 14 -25 29 -33 23
-35 -23z"/>
<path d="M1913 2518 c-2 -16 1 -18 10 -9 7 7 8 14 1 21 -6 6 -10 2 -11 -12z"/>
<path d="M3512 2423 c18 -27 36 -50 41 -51 4 -2 5 -8 1 -13 -3 -5 0 -9 6 -9 6
0 8 -4 5 -10 -3 -5 -1 -10 5 -10 6 0 15 -11 20 -25 5 -14 14 -25 20 -25 5 0 9
-3 8 -7 -3 -13 24 -63 34 -63 4 0 8 -7 8 -15 0 -9 7 -18 15 -21 8 -4 15 -12
15 -20 0 -8 4 -14 9 -14 5 0 12 -12 15 -26 4 -14 18 -37 31 -50 13 -13 21 -24
17 -24 -4 0 -2 -4 3 -8 6 -4 16 -18 22 -32 10 -23 12 -23 18 -6 5 10 3 21 -2
25 -6 3 -13 16 -17 29 -4 12 -11 22 -16 22 -5 0 -24 27 -42 60 -18 33 -39 60
-45 60 -7 0 -12 3 -12 8 3 19 -2 33 -11 27 -5 -3 -10 3 -10 14 0 13 -7 21 -17
21 -15 0 -16 2 -3 10 12 8 12 10 -3 16 -9 3 -17 13 -17 20 0 15 -8 27 -42 65
-10 10 -18 24 -18 29 0 6 -5 10 -12 10 -6 0 -9 3 -5 6 3 4 -1 13 -9 21 -8 8
-12 19 -9 24 4 5 -3 9 -15 9 -20 0 -19 -3 12 -47z"/>
<path d="M2412 2423 c-6 -2 -10 -9 -6 -14 3 -5 -1 -9 -8 -9 -8 -1 -4 -8 9 -19
17 -14 19 -21 10 -30 -9 -9 -8 -11 7 -5 13 5 17 4 12 -4 -4 -7 -1 -12 8 -12 8
0 18 -10 22 -22 4 -13 14 -28 23 -35 9 -7 12 -13 8 -13 -5 0 -2 -6 5 -14 20
-21 41 -53 40 -62 -1 -16 20 -34 31 -27 5 3 7 1 3 -5 -7 -12 13 -62 25 -62 5
0 8 11 7 24 -1 14 -6 22 -10 20 -4 -3 -8 0 -8 7 0 7 -8 21 -17 32 -13 15 -14
18 -3 12 12 -7 13 -6 3 7 -7 8 -11 18 -8 21 3 4 2 5 -1 2 -10 -7 -35 23 -37
44 0 11 -5 17 -9 15 -4 -3 -9 0 -9 5 -4 29 -28 80 -29 61 0 -13 -2 -13 -9 -1
-5 8 -7 21 -3 29 3 10 1 13 -6 8 -8 -4 -10 3 -7 24 2 17 0 28 -6 24 -5 -3 -7
-10 -4 -15 3 -5 -1 -6 -9 -3 -9 3 -13 10 -10 15 6 10 5 10 -14 2z"/>
<path d="M2380 2366 c0 -8 4 -17 9 -20 10 -7 23 19 14 28 -11 11 -23 6 -23 -8z"/>
<path d="M2355 2330 c-3 -11 -10 -20 -15 -20 -4 0 -10 -8 -14 -17 -8 -25 -29
-57 -43 -66 -7 -4 -9 -15 -6 -24 4 -10 2 -14 -5 -9 -6 3 -14 -3 -18 -16 -3
-12 -15 -30 -25 -41 -10 -11 -16 -24 -13 -29 3 -4 0 -8 -6 -8 -6 0 -15 -12
-20 -26 -6 -14 -14 -23 -19 -19 -6 3 -8 -4 -6 -15 2 -11 0 -20 -4 -20 -9 0
-23 -41 -17 -47 7 -7 66 100 60 109 -4 6 -2 8 3 5 9 -6 83 92 83 108 0 6 10
19 36 48 6 7 15 23 18 35 4 12 12 22 17 22 5 0 8 6 7 13 -2 6 2 11 9 10 7 -2
10 4 7 12 -8 21 -21 19 -29 -5z"/>
<path d="M4836 2332 c-4 -7 -1 -12 6 -12 9 0 9 -3 -2 -10 -12 -8 -12 -10 -1
-10 11 0 11 -3 1 -15 -10 -12 -10 -15 0 -15 9 0 9 -4 -1 -17 -10 -11 -10 -14
-1 -9 6 4 12 2 12 -3 0 -6 -5 -11 -11 -11 -5 0 -7 -4 -4 -10 3 -5 1 -10 -4
-10 -6 0 -11 -5 -11 -11 0 -5 5 -7 11 -3 6 3 4 -7 -5 -24 -8 -16 -13 -32 -10
-35 4 -3 -1 -16 -10 -28 -11 -16 -12 -26 -5 -35 7 -8 6 -15 -2 -20 -8 -5 -9
-3 -4 6 5 9 4 11 -4 6 -6 -4 -8 -12 -5 -18 13 -20 10 -53 -6 -66 -13 -12 -13
-13 4 -8 16 6 17 4 6 -9 -7 -8 -17 -12 -23 -8 -6 4 -7 1 -2 -7 5 -8 1 -19 -11
-28 -14 -11 -15 -13 -3 -9 14 5 15 2 6 -23 -6 -16 -16 -26 -21 -22 -6 3 -5 -2
3 -11 16 -20 31 -13 31 14 0 10 4 19 9 19 6 0 8 9 6 20 -2 11 1 20 7 20 6 0 8
3 5 7 -4 3 -3 11 2 17 6 6 12 25 15 41 2 17 5 30 6 30 3 0 11 46 11 68 0 9 4
17 8 17 4 0 7 11 7 25 0 14 -5 25 -10 25 -6 0 -5 4 3 9 8 5 15 22 17 37 1 16
5 45 8 65 5 39 -15 82 -28 61z m-25 -245 c-10 -9 -11 -8 -5 6 3 10 9 15 12 12
3 -3 0 -11 -7 -18z"/>
<path d="M1941 2084 c0 -11 3 -14 6 -6 3 7 2 16 -1 19 -3 4 -6 -2 -5 -13z"/>
<path d="M2647 2076 c-4 -10 2 -20 14 -27 19 -10 20 -9 8 13 -16 31 -16 31
-22 14z"/>
<path d="M1908 2074 c-3 -3 -3 -14 -1 -25 5 -16 8 -18 14 -7 16 25 6 51 -13
32z"/>
<path d="M1955 2050 c-4 -6 -10 -8 -14 -6 -4 3 -12 -4 -19 -15 -8 -12 -9 -19
-1 -19 5 0 8 -4 4 -9 -3 -5 -1 -12 5 -16 6 -4 8 -10 5 -15 -3 -5 1 -22 9 -38
8 -16 12 -32 9 -36 -4 -3 -2 -6 3 -6 5 0 10 -12 11 -26 0 -15 5 -29 10 -33 5
-3 8 -18 8 -33 -1 -15 3 -24 7 -22 4 3 8 0 8 -6 0 -6 5 -8 11 -4 8 4 9 -1 4
-16 -5 -17 -4 -21 6 -15 9 6 11 3 6 -8 -3 -10 -3 -17 1 -18 4 0 14 -2 23 -4
16 -3 20 28 4 42 -4 5 -5 2 -1 -4 4 -7 2 -13 -3 -13 -17 0 -13 18 7 30 16 10
16 10 -2 8 -10 -2 -21 3 -24 11 -3 9 0 11 8 6 9 -6 11 -4 5 5 -4 7 -2 16 6 21
11 7 11 9 1 9 -7 0 -15 -7 -18 -15 -9 -23 -21 -18 -21 10 0 13 2 23 6 21 4 -3
7 11 7 30 0 19 -4 34 -8 34 -5 0 -6 -11 -4 -25 5 -28 -18 -36 -28 -9 -3 8 -2
13 2 10 4 -2 8 4 8 14 0 11 -6 16 -14 13 -7 -3 -12 -2 -10 3 1 5 -3 19 -10 31
-9 16 -9 24 0 29 7 5 8 3 3 -6 -5 -9 -4 -11 4 -6 6 4 9 12 5 17 -3 5 -9 7 -14
4 -9 -6 -23 25 -15 33 3 3 5 0 5 -6 0 -7 5 -12 12 -12 7 0 5 7 -5 18 -15 17
-15 19 0 35 10 9 14 17 11 17 -4 0 -10 -5 -13 -10z"/>
<path d="M1990 1980 c0 -5 5 -10 11 -10 5 0 7 5 4 10 -3 6 -8 10 -11 10 -2 0
-4 -4 -4 -10z"/>
<path d="M3810 1970 c0 -11 4 -20 9 -20 5 0 11 -9 14 -21 3 -12 10 -18 16 -14
6 3 9 0 5 -8 -3 -8 6 -28 20 -45 15 -16 26 -35 26 -41 0 -6 3 -11 8 -11 4 0
16 -18 26 -40 11 -22 23 -40 28 -40 4 0 8 -6 8 -13 0 -7 13 -28 30 -47 16 -19
29 -40 30 -46 0 -6 11 -23 25 -38 13 -14 22 -26 20 -26 -8 0 58 -105 77 -121
10 -9 18 -22 18 -29 0 -7 10 -21 22 -31 11 -11 18 -19 15 -19 -4 0 1 -13 11
-28 9 -15 26 -43 37 -61 11 -19 27 -41 35 -50 8 -9 21 -29 29 -44 8 -15 18
-27 23 -27 5 0 7 -4 4 -9 -5 -7 45 -83 84 -128 5 -7 10 -14 10 -17 0 -12 64
-106 72 -106 5 0 6 -4 3 -10 -3 -5 -3 -10 2 -10 4 0 15 -15 22 -32 8 -18 25
-44 37 -57 13 -14 21 -28 18 -33 -3 -4 0 -8 5 -8 6 0 11 -6 11 -14 0 -8 7 -16
15 -20 8 -3 15 -1 15 4 0 5 8 7 18 4 14 -5 14 -4 2 4 -8 6 -18 8 -22 6 -4 -3
-8 2 -8 10 0 9 -4 16 -8 16 -5 0 -15 12 -23 28 -8 15 -20 33 -27 40 -7 8 -10
18 -7 23 4 5 -1 9 -10 9 -11 0 -15 5 -11 15 3 8 1 15 -5 15 -6 0 -9 7 -6 14 4
11 1 13 -10 9 -12 -5 -15 -2 -10 10 4 11 1 17 -8 17 -13 0 -17 6 -14 26 0 3
-10 14 -22 25 -12 10 -17 19 -11 19 6 0 0 11 -14 25 -14 14 -22 30 -19 35 3 6
1 10 -5 10 -6 0 -8 5 -5 10 3 6 -2 10 -12 10 -14 0 -15 2 -4 9 10 7 9 12 -8
24 -15 9 -23 27 -24 50 -1 24 -6 33 -15 29 -11 -4 -11 -6 0 -13 9 -6 9 -9 1
-9 -16 0 -26 17 -13 25 14 9 -11 45 -32 45 -10 0 -18 7 -18 15 0 8 -5 15 -11
15 -5 0 -7 5 -4 10 3 6 -2 10 -12 11 -12 0 -14 2 -4 6 10 4 6 12 -14 29 -16
13 -25 24 -21 24 4 0 -3 15 -16 33 -32 45 -47 68 -58 95 -5 12 -17 25 -25 28
-8 4 -15 12 -15 20 0 8 -5 14 -11 14 -5 0 -8 4 -4 9 3 5 1 12 -5 16 -5 3 -17
21 -26 40 -9 19 -20 35 -25 35 -5 0 -9 6 -9 13 0 10 -12 27 -59 83 -5 7 -7 15
-4 18 4 3 2 6 -4 6 -6 0 -16 14 -23 30 -7 17 -16 30 -21 30 -5 0 -8 4 -6 9 1
5 -7 17 -18 26 -11 9 -14 13 -6 9 8 -4 3 8 -11 27 -15 19 -28 41 -30 49 -3 16
-23 40 -32 40 -3 0 -6 -9 -6 -20z m520 -745 c7 -9 8 -15 2 -15 -5 0 -12 7 -16
15 -3 8 -4 15 -2 15 2 0 9 -7 16 -15z"/>
<path d="M2564 1884 c3 -8 1 -14 -5 -14 -6 0 -7 -4 -4 -10 10 -16 25 -12 25 8
1 9 7 2 15 -17 15 -33 12 -56 -6 -45 -5 3 -7 9 -4 14 3 5 0 12 -6 16 -8 4 -9
3 -5 -4 4 -7 1 -12 -8 -12 -10 0 -13 6 -10 15 4 8 1 15 -5 15 -14 0 -34 -38
-26 -50 3 -6 0 -10 -9 -10 -8 0 -25 -17 -37 -37 -13 -21 -27 -40 -31 -41 -5
-2 -6 -7 -3 -12 2 -4 -6 -20 -19 -35 -14 -16 -22 -35 -18 -43 3 -10 1 -13 -6
-8 -7 4 -12 4 -12 -1 0 -4 -18 -31 -39 -60 -22 -28 -37 -54 -34 -57 4 -3 4 -6
1 -6 -3 0 -17 11 -32 25 -15 14 -24 25 -21 25 3 0 -4 10 -15 23 -12 12 -30 39
-41 59 -22 44 -30 50 -49 37 -13 -7 -13 -9 0 -10 8 -1 19 -1 24 0 5 1 3 -6 -5
-15 -12 -15 -12 -17 0 -9 11 6 13 4 8 -8 -3 -9 -1 -19 5 -23 7 -4 8 -3 4 4 -4
7 -2 12 3 12 10 0 16 -22 12 -43 -1 -5 3 -6 9 -2 5 3 10 -1 10 -10 0 -9 4 -14
9 -11 4 3 13 -6 19 -19 7 -14 17 -25 23 -25 6 0 8 -7 5 -17 -4 -10 -4 -14 0
-10 4 4 13 2 21 -4 10 -9 13 -8 13 0 0 7 4 10 9 7 5 -3 12 1 15 10 4 10 2 13
-7 9 -6 -4 -1 2 12 13 14 11 26 30 28 43 4 28 23 41 39 28 8 -7 14 -6 19 1 4
6 3 10 -2 9 -20 -3 -25 2 -14 15 6 8 10 20 9 27 -2 8 5 14 14 14 9 0 20 4 25
9 4 5 3 6 -4 2 -16 -9 -16 -5 -3 29 7 17 15 25 24 22 10 -4 13 0 11 14 -2 10
0 19 6 19 5 0 8 6 7 13 -2 6 3 11 10 10 6 -2 12 2 12 8 0 5 4 7 10 4 6 -4 7 2
1 18 -8 21 -7 23 12 20 17 -3 23 -12 23 -34 1 -16 -2 -27 -6 -24 -4 3 -14 -3
-21 -13 -12 -15 -12 -16 2 -4 14 10 18 10 23 -5 6 -14 9 -12 21 11 18 35 19
40 2 33 -8 -3 -14 1 -14 8 0 7 6 11 12 8 15 -5 28 24 19 40 -5 9 -4 9 5 1 10
-9 10 -17 2 -33 -15 -27 0 -28 17 -1 10 17 9 23 -6 38 -10 10 -21 25 -24 34
-4 8 -16 18 -28 21 -16 4 -20 2 -16 -9z"/>
<path d="M4727 1843 c-2 -4 -3 -16 -1 -26 1 -10 -4 -21 -12 -24 -8 -3 -11 -9
-8 -14 3 -5 0 -9 -5 -9 -6 0 -11 -11 -11 -24 0 -14 -5 -28 -12 -32 -6 -4 -8
-3 -4 4 3 6 1 14 -5 18 -7 4 -9 3 -5 -4 3 -6 2 -13 -3 -16 -5 -4 -8 -17 -6
-31 1 -14 -2 -28 -8 -32 -6 -3 -7 -1 -3 5 3 6 2 13 -3 16 -4 3 -8 -2 -8 -12 0
-36 -3 -43 -15 -36 -8 5 -7 0 2 -11 8 -10 10 -16 3 -12 -7 5 -16 -1 -22 -12
-15 -26 -14 -31 4 -25 8 4 13 10 10 14 -3 4 2 10 10 13 8 4 24 25 35 47 18 34
19 44 9 58 -11 14 -11 15 1 5 16 -14 31 -17 28 -5 -1 4 4 18 11 31 11 19 11
22 -1 16 -7 -3 -5 0 4 8 10 8 15 17 11 20 -3 4 -2 7 4 7 5 0 15 11 21 24 8 19
8 27 -3 36 -7 6 -15 7 -18 3z"/>
<path d="M1940 1801 c0 -7 -5 -9 -10 -6 -6 4 -17 2 -25 -5 -11 -9 -10 -15 8
-34 12 -12 25 -21 30 -18 4 2 5 -11 2 -30 -3 -18 -10 -35 -16 -36 -5 -2 -7 -8
-3 -13 3 -5 -2 -9 -11 -9 -10 0 -13 -5 -9 -12 5 -7 2 -9 -9 -5 -11 4 -14 2
-10 -9 8 -22 29 -17 41 11 6 14 16 25 22 25 6 0 8 5 5 10 -3 6 1 13 10 16 11
5 13 10 5 19 -8 9 -7 14 2 18 11 4 10 6 0 6 -7 1 -10 6 -7 11 3 6 1 10 -4 10
-6 0 -11 7 -11 16 0 9 -5 12 -12 8 -9 -5 -8 -2 1 9 8 10 11 20 7 24 -3 3 -6 1
-6 -6z"/>
<path d="M1873 1733 c-10 -16 -22 -31 -28 -35 -6 -5 -6 -8 0 -8 6 0 4 -4 -4
-9 -13 -8 -13 -12 0 -28 13 -16 12 -17 -3 -5 -14 11 -18 10 -28 -8 -6 -11 -8
-26 -4 -32 4 -6 3 -8 -3 -5 -5 3 -17 -7 -27 -24 -9 -16 -22 -29 -27 -29 -6 0
-7 -5 -4 -10 3 -6 -1 -13 -9 -16 -9 -3 -14 -10 -11 -14 2 -4 -6 -19 -20 -34
-13 -14 -22 -26 -19 -26 3 0 -7 -17 -21 -37 -27 -40 -32 -59 -13 -47 7 4 8 3
4 -4 -4 -7 -13 -12 -19 -12 -7 0 -20 -12 -31 -26 -15 -22 -16 -28 -5 -35 8 -5
15 -4 17 1 2 5 11 6 20 3 13 -4 13 -2 -3 11 -17 15 -17 17 -3 12 10 -3 17 -2
17 2 -4 21 2 32 14 26 6 -4 9 -4 5 1 -4 4 -3 17 3 28 9 15 8 18 -2 12 -8 -5
-10 -4 -5 4 6 9 11 9 22 0 8 -6 12 -14 9 -17 -3 -3 0 -11 7 -19 8 -10 8 -17 0
-25 -6 -6 -8 -17 -5 -26 4 -10 2 -13 -5 -8 -7 4 -12 4 -12 -1 0 -4 -4 -14 -9
-22 -8 -12 -12 -12 -25 -2 -9 8 -16 9 -16 3 0 -6 6 -12 13 -15 9 -3 8 -9 -5
-23 -9 -10 -17 -23 -18 -29 -1 -5 -6 -9 -11 -8 -4 2 -6 -4 -3 -12 4 -8 -1 -17
-9 -21 -9 -3 -14 -11 -11 -18 3 -7 -2 -19 -10 -26 -9 -7 -13 -16 -10 -21 3 -5
1 -9 -5 -9 -5 0 -12 6 -15 13 -3 6 -3 2 0 -10 3 -16 -1 -23 -17 -28 -17 -6
-19 -9 -8 -16 11 -7 11 -9 1 -9 -7 0 -10 -5 -7 -10 3 -6 -1 -13 -9 -16 -9 -3
-13 -10 -10 -15 8 -13 -19 -10 -38 5 -16 11 -16 15 -2 34 8 12 12 22 7 22 -4
0 0 5 10 11 9 5 17 16 17 24 0 9 8 12 20 10 11 -2 18 0 15 6 -4 5 0 9 7 9 10
0 10 2 0 9 -20 12 -19 21 1 32 9 6 14 15 11 21 -5 7 -2 9 8 5 12 -4 14 -1 11
13 -4 15 -1 18 15 15 11 -2 28 5 38 16 10 11 12 19 6 19 -7 0 -12 -5 -12 -11
0 -5 -5 -7 -12 -3 -7 5 -8 3 -3 -6 6 -9 4 -11 -4 -6 -9 6 -9 12 3 25 20 22 20
31 1 31 -9 0 -20 -11 -25 -25 -5 -14 -14 -25 -20 -25 -5 0 -9 -3 -8 -7 3 -15
-16 -48 -35 -62 -19 -13 -19 -15 -3 -27 11 -8 13 -14 7 -19 -6 -3 -11 -1 -11
4 0 24 -20 9 -37 -26 -9 -21 -22 -41 -27 -45 -23 -16 -6 -71 19 -62 9 4 15 0
15 -8 0 -23 31 -17 43 9 5 13 14 23 19 23 5 0 6 5 3 10 -3 6 -2 10 3 10 5 0
17 16 28 35 10 19 22 35 25 35 4 0 10 11 13 25 4 14 11 25 16 25 6 0 10 5 10
11 0 6 10 25 23 42 25 36 39 59 63 105 10 17 21 32 25 32 3 0 12 14 19 30 7
17 17 30 22 30 5 0 6 5 3 10 -3 6 -1 10 5 10 6 0 9 4 6 9 -4 5 0 11 6 14 10 4
11 7 1 18 -11 11 -15 11 -25 0 -11 -11 -10 -12 1 -6 10 6 12 4 7 -4 -5 -7 -15
-10 -23 -6 -14 5 -14 3 -2 -11 11 -14 10 -19 -8 -34 -12 -10 -19 -20 -16 -24
4 -3 1 -6 -6 -6 -7 0 -9 -5 -5 -11 4 -7 1 -10 -7 -7 -8 3 -13 12 -11 22 2 9
-2 16 -8 16 -5 0 -10 5 -10 11 0 5 6 7 13 3 7 -5 6 0 -3 11 -9 11 -10 16 -2
11 7 -4 12 -2 12 4 0 6 5 8 13 4 8 -5 8 -3 -2 9 -11 14 -11 18 2 23 9 3 20 3
25 0 5 -3 9 1 9 8 0 9 -7 12 -16 8 -10 -4 -8 4 8 26 12 18 27 32 32 32 6 0 7
5 4 10 -3 6 -1 10 5 10 6 0 8 5 5 10 -3 6 0 13 8 16 9 3 18 16 21 30 4 13 12
23 19 21 7 -1 11 6 9 17 -2 10 1 15 7 11 7 -4 8 0 5 10 -4 10 -2 15 7 13 9 -2
14 5 13 20 -1 12 3 22 8 22 5 0 7 4 4 9 -4 5 0 12 6 14 10 4 10 6 1 6 -7 1
-20 -11 -30 -26z m-203 -486 c0 -2 -10 -12 -22 -23 l-23 -19 19 23 c18 21 26
27 26 19z"/>
<path d="M2510 1724 c0 -6 5 -15 11 -21 16 -16 4 -44 -16 -37 -8 3 -13 9 -10
13 2 4 -3 8 -12 8 -11 0 -8 -8 13 -25 16 -13 24 -22 18 -18 -6 3 -16 -6 -23
-20 -6 -14 -15 -23 -20 -19 -5 3 -13 0 -17 -6 -4 -8 -3 -9 4 -5 7 4 12 1 12
-9 0 -9 -4 -13 -10 -10 -5 3 -10 -1 -10 -10 0 -11 -5 -15 -15 -11 -12 4 -14 2
-7 -11 7 -12 4 -22 -9 -37 -11 -11 -19 -26 -19 -34 0 -12 -3 -12 -17 -1 -14
12 -16 12 -8 0 6 -11 4 -13 -8 -8 -10 3 -17 2 -17 -3 0 -6 8 -10 17 -10 15 0
14 -2 -3 -16 -10 -8 -12 -13 -4 -9 8 4 4 -3 -10 -15 -14 -12 -18 -19 -10 -15
8 4 6 -1 -4 -9 -27 -22 -35 -20 -45 8 -9 22 -38 42 -48 32 -4 -4 10 -22 54
-71 18 -20 49 -33 39 -16 -4 5 -2 11 2 13 10 4 75 101 116 173 15 27 34 54 42
58 8 4 14 14 14 22 0 7 5 15 11 17 5 2 11 11 12 19 2 9 10 24 20 33 9 10 17
27 17 39 -1 22 -1 22 -16 2 -15 -20 -15 -20 -30 -1 -8 11 -14 15 -14 10z"/>
<path d="M2046 1693 c-3 -3 4 -15 15 -27 12 -11 28 -38 36 -58 17 -42 24 -46
44 -21 10 11 10 14 2 9 -8 -4 -13 -2 -13 4 0 6 -4 8 -10 5 -9 -5 -15 15 -11
38 0 4 -3 7 -9 7 -5 0 -9 3 -9 8 3 20 -3 30 -20 35 -11 3 -22 3 -25 0z"/>
<path d="M1867 1592 c-8 -9 -12 -23 -9 -31 3 -10 0 -12 -11 -8 -11 4 -15 1
-12 -13 2 -11 -4 -24 -13 -30 -9 -5 -12 -10 -7 -10 6 0 4 -4 -4 -9 -7 -5 -10
-14 -7 -20 10 -15 26 -14 26 2 0 7 9 23 19 34 11 12 18 23 15 26 -2 2 2 10 11
17 8 7 15 18 15 25 0 8 5 15 12 17 8 3 6 7 -4 10 -9 4 -22 -1 -31 -10z m13
-12 c0 -5 -5 -10 -11 -10 -5 0 -7 5 -4 10 3 6 8 10 11 10 2 0 4 -4 4 -10z"/>
<path d="M2130 1565 c0 -14 32 -65 40 -65 6 0 10 -7 10 -15 0 -8 6 -15 14 -15
8 0 18 -9 21 -20 7 -22 20 -26 30 -10 3 6 1 10 -6 10 -9 0 -9 3 0 14 8 10 9
16 1 21 -6 4 -9 2 -8 -3 2 -6 -1 -9 -7 -8 -5 0 -9 4 -7 9 1 4 -5 7 -14 7 -8 0
-12 5 -9 10 3 6 1 10 -5 10 -6 0 -9 4 -5 9 3 5 -4 12 -15 16 -11 3 -20 13 -20
21 0 8 -4 14 -10 14 -5 0 -10 -2 -10 -5z"/>
<path d="M2390 1561 c0 -6 4 -12 8 -15 5 -3 9 1 9 9 0 8 -4 15 -9 15 -4 0 -8
-4 -8 -9z"/>
<path d="M4543 1516 c-18 -17 -33 -39 -33 -48 0 -10 -11 -25 -25 -34 -14 -9
-22 -21 -18 -27 4 -6 0 -8 -10 -4 -12 4 -14 2 -10 -10 4 -9 2 -14 -3 -10 -6 3
-16 1 -24 -5 -12 -8 -11 -8 5 -3 20 6 20 6 0 -13 -11 -11 -23 -17 -28 -15 -4
2 -6 -1 -5 -8 2 -7 -7 -18 -20 -24 -12 -5 -20 -15 -18 -21 2 -6 0 -16 -6 -22
-8 -8 -6 -14 10 -19 20 -8 22 -11 22 -31 0 -15 37 -52 44 -45 3 3 6 -1 6 -11
0 -11 -4 -15 -12 -10 -9 5 -9 2 1 -9 7 -9 19 -17 25 -17 6 0 20 -17 31 -37 11
-21 26 -42 33 -46 7 -5 10 -12 7 -18 -4 -5 -2 -9 4 -9 6 0 8 -8 5 -17 -4 -14
-3 -15 4 -5 7 11 11 10 16 -4 4 -10 1 -21 -6 -25 -8 -5 -2 -10 16 -15 20 -5
24 -9 14 -15 -10 -7 -9 -9 5 -9 20 0 22 -11 5 -28 -7 -7 -8 -12 -2 -12 5 0 14
4 20 10 6 6 10 2 11 -12 1 -13 7 -24 13 -26 6 -2 16 -14 21 -26 5 -11 20 -39
33 -61 13 -22 22 -48 20 -58 -1 -10 1 -15 7 -12 5 4 7 11 4 16 -3 5 1 6 9 3 9
-3 13 -11 9 -17 -3 -6 -1 -7 6 -3 9 6 7 16 -9 39 -11 18 -24 31 -30 30 -5 -2
-7 4 -4 12 4 8 1 15 -5 15 -6 0 -11 5 -11 12 0 6 -34 62 -75 124 -41 62 -75
117 -75 123 0 6 -4 11 -8 11 -5 0 -18 18 -31 40 -16 28 -27 38 -39 34 -12 -4
-13 -3 -4 3 13 10 7 43 -8 43 -4 0 -13 14 -19 30 -5 17 -15 30 -22 30 -6 0 -9
6 -6 14 3 8 1 16 -4 18 -6 2 26 41 70 86 45 46 81 87 81 92 0 5 11 20 25 34
14 14 25 29 25 35 0 5 6 12 13 14 8 4 7 5 -3 5 -8 0 -30 -14 -47 -32z m-5 -26
c-7 -10 -14 -17 -17 -15 -4 4 18 35 25 35 2 0 -1 -9 -8 -20z"/>
<path d="M1770 1525 c0 -5 5 -17 10 -25 5 -8 10 -10 10 -5 0 6 -5 17 -10 25
-5 8 -10 11 -10 5z"/>
<path d="M2393 1515 c0 -8 4 -12 9 -9 4 3 8 9 8 15 0 5 -4 9 -8 9 -5 0 -9 -7
-9 -15z"/>
<path d="M4475 1450 c-3 -5 -2 -10 4 -10 5 0 13 5 16 10 3 6 2 10 -4 10 -5 0
-13 -4 -16 -10z"/>
<path d="M2260 1440 c0 -6 7 -10 15 -10 8 0 15 2 15 4 0 2 -7 6 -15 10 -8 3
-15 1 -15 -4z"/>
<path d="M1475 1040 c-3 -5 -1 -10 4 -10 6 0 11 5 11 10 0 6 -2 10 -4 10 -3 0
-8 -4 -11 -10z"/>
</g>
</svg>
